<svg width="140" height="121" viewBox="0 0 140 121" fill="none" xmlns="http://www.w3.org/2000/svg">
<g filter="url(#filter0_iiii_6556_13215)">
<path d="M69.6904 0C77.9422 8.17274e-05 85.1033 4.49594 88.6885 11.085C92.436 7.99346 97.3018 6.12603 102.62 6.12598C114.463 6.12598 124.063 15.3839 124.063 26.8037C124.063 30.8092 122.881 34.5476 120.836 37.7148C131.308 39.0794 139.381 47.7314 139.381 58.2031C139.381 66.9014 133.81 74.3435 125.922 77.3975C126.701 79.5399 127.127 81.8431 127.127 84.2422C127.127 95.6618 117.526 104.919 105.684 104.919C100.056 104.919 94.9356 102.828 91.1104 99.4082C91.1241 99.7116 91.1328 100.017 91.1328 100.323C91.1328 111.743 81.533 121.001 69.6904 121.001C57.8477 121.001 48.2471 111.743 48.2471 100.323C48.2471 100.241 48.249 100.158 48.25 100.076C44.5221 103.098 39.7129 104.919 34.4619 104.919C22.6195 104.919 13.0197 95.6617 13.0195 84.2422C13.0195 81.9361 13.4104 79.7178 14.1328 77.6465C5.88965 74.764 0 67.1473 0 58.2031C8.51952e-05 47.4957 8.44008 38.6888 19.2549 37.6318C17.2432 34.4825 16.0821 30.7739 16.082 26.8037C16.082 15.3839 25.6827 6.12598 37.5254 6.12598C42.5965 6.12602 47.2557 7.82427 50.9268 10.6621C54.5843 4.30393 61.616 0 69.6904 0ZM83.6211 36.3945C79.8736 39.486 75.0088 41.3544 69.6904 41.3545C64.6189 41.3545 59.9593 39.6557 56.2881 36.8174C52.965 42.5946 46.8575 46.6761 39.7119 47.374C41.7241 50.5237 42.8857 54.2323 42.8857 58.2031C42.8857 60.5091 42.4938 62.7267 41.7715 64.7979C50.0153 67.68 55.9053 75.2976 55.9053 84.2422C55.9053 84.3243 55.9024 84.4064 55.9014 84.4883C59.6293 81.4666 64.4393 79.6455 69.6904 79.6455C75.3176 79.6456 80.4375 81.7372 84.2627 85.1562C84.249 84.8532 84.2412 84.5485 84.2412 84.2422C84.2412 75.5442 89.8107 68.101 97.6982 65.0469C96.9193 62.9047 96.4941 60.6018 96.4941 58.2031C96.4942 54.1976 97.6759 50.4583 99.7207 47.291C92.7115 46.3773 86.7788 42.199 83.6211 36.3945Z" fill="url(#paint0_linear_6556_13215)"/>
</g>
<g filter="url(#filter1_ddiiii_6556_13215)">
<path d="M96.2705 22.4062C103.369 22.4063 109.124 28.091 109.124 35.1035C109.124 39.6057 107.659 44.1756 104.732 46.8711C110.257 53.4965 113.53 61.2018 113.53 68.3428C113.53 85.8745 93.8009 100.087 69.4629 100.087C45.1248 100.087 25.3946 85.8745 25.3945 68.3428C25.3945 60.7547 29.0919 52.5303 35.2578 45.6406C33.0901 42.9034 32.0049 38.9783 32.0049 35.1035C32.0051 28.091 37.7599 22.4062 44.8584 22.4062C50.5083 22.4063 56.2368 26.2444 58.3398 31.3467C61.893 30.3989 65.6205 29.876 69.4629 29.876C74.0263 29.876 78.4277 30.6123 82.5674 31.9238C84.4624 26.5364 90.4093 22.4062 96.2705 22.4062Z" fill="url(#paint1_linear_6556_13215)"/>
</g>
<g filter="url(#filter2_diii_6556_13215)">
<path d="M76.5596 66.1035C81.3031 66.1037 85.1482 70.5675 85.1484 74.6924C85.5219 80.2941 81.3033 82.162 76.5596 82.1621C73.2641 82.1621 70.4033 80.5471 68.9629 78.1787C67.7255 81.1002 64.4497 82.1621 60.874 82.1621C56.1302 82.1621 52.2842 78.8175 52.2842 74.6924C52.2844 70.5673 56.1303 66.1035 60.874 66.1035C64.3694 66.1036 67.3748 68.5281 68.7158 71.4541C70.0567 68.5278 73.0639 66.1035 76.5596 66.1035Z" fill="#FFF6E9"/>
</g>
<g filter="url(#filter3_i_6556_13215)">
<path d="M75.4388 66.4754C75.4388 68.7442 72.8026 71.3304 69.09 71.3304C65.3774 71.3304 62.7412 68.7442 62.7412 66.4754C62.7412 64.6081 63.1147 63.1143 69.09 63.1143C72.8246 63.1143 75.4388 63.8612 75.4388 66.4754Z" fill="url(#paint2_linear_6556_13215)"/>
</g>
<ellipse cx="72.0769" cy="66.8488" rx="3.36114" ry="3.36112" transform="rotate(-90 72.0769 66.8488)" fill="url(#paint3_radial_6556_13215)"/>
<path d="M54.5248 57.8823C54.8983 63.1108 53.031 63.8577 50.7902 63.8577C47.8026 63.4842 47.0557 61.2435 47.0557 58.2558C47.0557 55.5744 48.9339 53.0273 50.7902 53.0273C52.6465 53.0273 54.3338 55.2078 54.5248 57.8823Z" fill="url(#paint4_linear_6556_13215)"/>
<ellipse cx="52.2847" cy="56.7631" rx="2.24075" ry="2.98768" fill="url(#paint5_radial_6556_13215)"/>
<path d="M90.7504 57.8823C91.1239 63.1108 89.2566 63.8577 87.0158 63.8577C84.0282 63.4842 83.2812 61.2435 83.2813 58.2558C83.2813 55.5744 85.1595 53.0273 87.0158 53.0273C88.8721 53.0273 90.5594 55.2078 90.7504 57.8823Z" fill="url(#paint6_linear_6556_13215)"/>
<ellipse cx="88.8833" cy="56.7631" rx="2.24075" ry="2.98768" fill="url(#paint7_radial_6556_13215)"/>
<defs>
<filter id="filter0_iiii_6556_13215" x="-4" y="-4" width="149.181" height="130.001" filterUnits="userSpaceOnUse" color-interpolation-filters="sRGB">
<feFlood flood-opacity="0" result="BackgroundImageFix"/>
<feBlend mode="normal" in="SourceGraphic" in2="BackgroundImageFix" result="shape"/>
<feColorMatrix in="SourceAlpha" type="matrix" values="0 0 0 0 0 0 0 0 0 0 0 0 0 0 0 0 0 0 127 0" result="hardAlpha"/>
<feOffset dx="8" dy="-4"/>
<feGaussianBlur stdDeviation="2.9"/>
<feComposite in2="hardAlpha" operator="arithmetic" k2="-1" k3="1"/>
<feColorMatrix type="matrix" values="0 0 0 0 0 0 0 0 0 0 0 0 0 0 0 0 0 0 0.25 0"/>
<feBlend mode="overlay" in2="shape" result="effect1_innerShadow_6556_13215"/>
<feColorMatrix in="SourceAlpha" type="matrix" values="0 0 0 0 0 0 0 0 0 0 0 0 0 0 0 0 0 0 127 0" result="hardAlpha"/>
<feOffset dx="-4" dy="5"/>
<feGaussianBlur stdDeviation="4"/>
<feComposite in2="hardAlpha" operator="arithmetic" k2="-1" k3="1"/>
<feColorMatrix type="matrix" values="0 0 0 0 1 0 0 0 0 1 0 0 0 0 1 0 0 0 0.5 0"/>
<feBlend mode="normal" in2="effect1_innerShadow_6556_13215" result="effect2_innerShadow_6556_13215"/>
<feColorMatrix in="SourceAlpha" type="matrix" values="0 0 0 0 0 0 0 0 0 0 0 0 0 0 0 0 0 0 127 0" result="hardAlpha"/>
<feOffset dy="2"/>
<feGaussianBlur stdDeviation="2"/>
<feComposite in2="hardAlpha" operator="arithmetic" k2="-1" k3="1"/>
<feColorMatrix type="matrix" values="0 0 0 0 1 0 0 0 0 0.689334 0 0 0 0 0.310577 0 0 0 1 0"/>
<feBlend mode="normal" in2="effect2_innerShadow_6556_13215" result="effect3_innerShadow_6556_13215"/>
<feColorMatrix in="SourceAlpha" type="matrix" values="0 0 0 0 0 0 0 0 0 0 0 0 0 0 0 0 0 0 127 0" result="hardAlpha"/>
<feOffset dx="5" dy="-3"/>
<feGaussianBlur stdDeviation="2"/>
<feComposite in2="hardAlpha" operator="arithmetic" k2="-1" k3="1"/>
<feColorMatrix type="matrix" values="0 0 0 0 0 0 0 0 0 0 0 0 0 0 0 0 0 0 0.25 0"/>
<feBlend mode="overlay" in2="effect3_innerShadow_6556_13215" result="effect4_innerShadow_6556_13215"/>
</filter>
<filter id="filter1_ddiiii_6556_13215" x="15.6945" y="17.4062" width="104.936" height="96.7807" filterUnits="userSpaceOnUse" color-interpolation-filters="sRGB">
<feFlood flood-opacity="0" result="BackgroundImageFix"/>
<feColorMatrix in="SourceAlpha" type="matrix" values="0 0 0 0 0 0 0 0 0 0 0 0 0 0 0 0 0 0 127 0" result="hardAlpha"/>
<feOffset dy="7"/>
<feGaussianBlur stdDeviation="3.55"/>
<feComposite in2="hardAlpha" operator="out"/>
<feColorMatrix type="matrix" values="0 0 0 0 0 0 0 0 0 0 0 0 0 0 0 0 0 0 0.3 0"/>
<feBlend mode="overlay" in2="BackgroundImageFix" result="effect1_dropShadow_6556_13215"/>
<feColorMatrix in="SourceAlpha" type="matrix" values="0 0 0 0 0 0 0 0 0 0 0 0 0 0 0 0 0 0 127 0" result="hardAlpha"/>
<feOffset dx="-5" dy="4"/>
<feGaussianBlur stdDeviation="2.35"/>
<feComposite in2="hardAlpha" operator="out"/>
<feColorMatrix type="matrix" values="0 0 0 0 0 0 0 0 0 0 0 0 0 0 0 0 0 0 0.25 0"/>
<feBlend mode="overlay" in2="effect1_dropShadow_6556_13215" result="effect2_dropShadow_6556_13215"/>
<feBlend mode="normal" in="SourceGraphic" in2="effect2_dropShadow_6556_13215" result="shape"/>
<feColorMatrix in="SourceAlpha" type="matrix" values="0 0 0 0 0 0 0 0 0 0 0 0 0 0 0 0 0 0 127 0" result="hardAlpha"/>
<feOffset dx="7" dy="-5"/>
<feGaussianBlur stdDeviation="4.2"/>
<feComposite in2="hardAlpha" operator="arithmetic" k2="-1" k3="1"/>
<feColorMatrix type="matrix" values="0 0 0 0 0 0 0 0 0 0 0 0 0 0 0 0 0 0 1 0"/>
<feBlend mode="overlay" in2="shape" result="effect3_innerShadow_6556_13215"/>
<feColorMatrix in="SourceAlpha" type="matrix" values="0 0 0 0 0 0 0 0 0 0 0 0 0 0 0 0 0 0 127 0" result="hardAlpha"/>
<feOffset dx="-2" dy="4"/>
<feGaussianBlur stdDeviation="2"/>
<feComposite in2="hardAlpha" operator="arithmetic" k2="-1" k3="1"/>
<feColorMatrix type="matrix" values="0 0 0 0 1 0 0 0 0 1 0 0 0 0 1 0 0 0 0.5 0"/>
<feBlend mode="normal" in2="effect3_innerShadow_6556_13215" result="effect4_innerShadow_6556_13215"/>
<feColorMatrix in="SourceAlpha" type="matrix" values="0 0 0 0 0 0 0 0 0 0 0 0 0 0 0 0 0 0 127 0" result="hardAlpha"/>
<feOffset dy="2"/>
<feGaussianBlur stdDeviation="2"/>
<feComposite in2="hardAlpha" operator="arithmetic" k2="-1" k3="1"/>
<feColorMatrix type="matrix" values="0 0 0 0 1 0 0 0 0 0.696267 0 0 0 0 0.325961 0 0 0 0.6 0"/>
<feBlend mode="normal" in2="effect4_innerShadow_6556_13215" result="effect5_innerShadow_6556_13215"/>
<feColorMatrix in="SourceAlpha" type="matrix" values="0 0 0 0 0 0 0 0 0 0 0 0 0 0 0 0 0 0 127 0" result="hardAlpha"/>
<feOffset dx="2" dy="-3"/>
<feGaussianBlur stdDeviation="2.85"/>
<feComposite in2="hardAlpha" operator="arithmetic" k2="-1" k3="1"/>
<feColorMatrix type="matrix" values="0 0 0 0 0.803846 0 0 0 0 0.54743 0 0 0 0 0.249656 0 0 0 0.6 0"/>
<feBlend mode="normal" in2="effect5_innerShadow_6556_13215" result="effect6_innerShadow_6556_13215"/>
</filter>
<filter id="filter2_diii_6556_13215" x="46.5842" y="62.4035" width="44.2877" height="27.4586" filterUnits="userSpaceOnUse" color-interpolation-filters="sRGB">
<feFlood flood-opacity="0" result="BackgroundImageFix"/>
<feColorMatrix in="SourceAlpha" type="matrix" values="0 0 0 0 0 0 0 0 0 0 0 0 0 0 0 0 0 0 127 0" result="hardAlpha"/>
<feOffset dy="2"/>
<feGaussianBlur stdDeviation="2.85"/>
<feComposite in2="hardAlpha" operator="out"/>
<feColorMatrix type="matrix" values="0 0 0 0 0.803846 0 0 0 0 0.54743 0 0 0 0 0.249656 0 0 0 0.6 0"/>
<feBlend mode="normal" in2="BackgroundImageFix" result="effect1_dropShadow_6556_13215"/>
<feBlend mode="normal" in="SourceGraphic" in2="effect1_dropShadow_6556_13215" result="shape"/>
<feColorMatrix in="SourceAlpha" type="matrix" values="0 0 0 0 0 0 0 0 0 0 0 0 0 0 0 0 0 0 127 0" result="hardAlpha"/>
<feOffset dy="-3"/>
<feGaussianBlur stdDeviation="2.65"/>
<feComposite in2="hardAlpha" operator="arithmetic" k2="-1" k3="1"/>
<feColorMatrix type="matrix" values="0 0 0 0 0 0 0 0 0 0 0 0 0 0 0 0 0 0 1 0"/>
<feBlend mode="overlay" in2="shape" result="effect2_innerShadow_6556_13215"/>
<feColorMatrix in="SourceAlpha" type="matrix" values="0 0 0 0 0 0 0 0 0 0 0 0 0 0 0 0 0 0 127 0" result="hardAlpha"/>
<feOffset dy="-2"/>
<feGaussianBlur stdDeviation="2.8"/>
<feComposite in2="hardAlpha" operator="arithmetic" k2="-1" k3="1"/>
<feColorMatrix type="matrix" values="0 0 0 0 0.919231 0 0 0 0 0.704703 0 0 0 0 0.388021 0 0 0 0.6 0"/>
<feBlend mode="normal" in2="effect2_innerShadow_6556_13215" result="effect3_innerShadow_6556_13215"/>
<feColorMatrix in="SourceAlpha" type="matrix" values="0 0 0 0 0 0 0 0 0 0 0 0 0 0 0 0 0 0 127 0" result="hardAlpha"/>
<feOffset dy="4"/>
<feGaussianBlur stdDeviation="2.8"/>
<feComposite in2="hardAlpha" operator="arithmetic" k2="-1" k3="1"/>
<feColorMatrix type="matrix" values="0 0 0 0 1 0 0 0 0 1 0 0 0 0 1 0 0 0 1 0"/>
<feBlend mode="normal" in2="effect3_innerShadow_6556_13215" result="effect4_innerShadow_6556_13215"/>
</filter>
<filter id="filter3_i_6556_13215" x="62.7412" y="63.1143" width="12.6973" height="10.2158" filterUnits="userSpaceOnUse" color-interpolation-filters="sRGB">
<feFlood flood-opacity="0" result="BackgroundImageFix"/>
<feBlend mode="normal" in="SourceGraphic" in2="BackgroundImageFix" result="shape"/>
<feColorMatrix in="SourceAlpha" type="matrix" values="0 0 0 0 0 0 0 0 0 0 0 0 0 0 0 0 0 0 127 0" result="hardAlpha"/>
<feOffset dy="2"/>
<feGaussianBlur stdDeviation="2"/>
<feComposite in2="hardAlpha" operator="arithmetic" k2="-1" k3="1"/>
<feColorMatrix type="matrix" values="0 0 0 0 1 0 0 0 0 1 0 0 0 0 1 0 0 0 0.3 0"/>
<feBlend mode="normal" in2="shape" result="effect1_innerShadow_6556_13215"/>
</filter>
<linearGradient id="paint0_linear_6556_13215" x1="69.6904" y1="0" x2="69.6904" y2="121.001" gradientUnits="userSpaceOnUse">
<stop stop-color="#F1B858"/>
<stop offset="1" stop-color="#E89F46"/>
</linearGradient>
<linearGradient id="paint1_linear_6556_13215" x1="69.4624" y1="22.4062" x2="69.4624" y2="100.087" gradientUnits="userSpaceOnUse">
<stop stop-color="#FAF0D7"/>
<stop offset="1" stop-color="#FFDEB7"/>
</linearGradient>
<linearGradient id="paint2_linear_6556_13215" x1="69.09" y1="63.1143" x2="69.09" y2="71.3304" gradientUnits="userSpaceOnUse">
<stop stop-color="#3B3B3B"/>
<stop offset="1"/>
</linearGradient>
<radialGradient id="paint3_radial_6556_13215" cx="0" cy="0" r="1" gradientUnits="userSpaceOnUse" gradientTransform="translate(72.0769 66.8488) rotate(90) scale(3.36112 3.36114)">
<stop stop-color="white" stop-opacity="0.5"/>
<stop offset="1" stop-color="#999999" stop-opacity="0"/>
</radialGradient>
<linearGradient id="paint4_linear_6556_13215" x1="50.8142" y1="53.0273" x2="50.8142" y2="63.8577" gradientUnits="userSpaceOnUse">
<stop stop-color="#4C4C4C"/>
<stop offset="1"/>
</linearGradient>
<radialGradient id="paint5_radial_6556_13215" cx="0" cy="0" r="1" gradientUnits="userSpaceOnUse" gradientTransform="translate(52.2847 56.7631) rotate(90) scale(2.98768 2.24075)">
<stop stop-color="white" stop-opacity="0.5"/>
<stop offset="1" stop-color="#999999" stop-opacity="0"/>
</radialGradient>
<linearGradient id="paint6_linear_6556_13215" x1="87.0397" y1="53.0273" x2="87.0397" y2="63.8577" gradientUnits="userSpaceOnUse">
<stop stop-color="#4C4C4C"/>
<stop offset="1"/>
</linearGradient>
<radialGradient id="paint7_radial_6556_13215" cx="0" cy="0" r="1" gradientUnits="userSpaceOnUse" gradientTransform="translate(88.8833 56.7631) rotate(90) scale(2.98768 2.24075)">
<stop stop-color="white" stop-opacity="0.5"/>
<stop offset="1" stop-color="#999999" stop-opacity="0"/>
</radialGradient>
</defs>
</svg>
