<svg width="170" height="43" viewBox="0 0 170 43" fill="none" xmlns="http://www.w3.org/2000/svg">
<path d="M49.7198 13.504C49.4931 13.504 49.3118 13.5493 49.1758 13.64C49.0625 13.708 48.9718 13.7987 48.9038 13.912C48.8585 14.0253 48.8245 14.1387 48.8018 14.252C48.8018 14.3427 48.8018 14.422 48.8018 14.49C48.6885 16.7567 48.6205 18.944 48.5978 21.052C48.5751 23.16 48.5865 25.1773 48.6318 27.104C48.6545 27.24 48.6998 27.4327 48.7678 27.682C48.8358 27.9313 49.0738 28.056 49.4818 28.056H51.8618C53.4938 28.056 54.7745 27.4553 55.7038 26.254C56.6558 25.0527 57.1318 23.2507 57.1318 20.848C57.1318 18.3093 56.6898 16.4507 55.8058 15.272C54.9218 14.0933 53.6071 13.504 51.8618 13.504H49.7198ZM51.9298 7.826C53.9471 7.826 55.6471 8.2 57.0298 8.948C58.4125 9.67333 59.5345 10.648 60.3958 11.872C61.2798 13.096 61.9145 14.49 62.2998 16.054C62.6851 17.618 62.8778 19.2273 62.8778 20.882C62.8778 22.6727 62.6285 24.35 62.1298 25.914C61.6311 27.478 60.9171 28.838 59.9878 29.994C59.0585 31.15 57.9138 32.0567 56.5538 32.714C55.1938 33.394 53.6525 33.734 51.9298 33.734H45.7078C44.9825 33.734 44.3478 33.5413 43.8038 33.156C43.2825 32.7707 42.9991 32.1927 42.9538 31.422C42.9311 30.9233 42.9085 30.1187 42.8858 29.008C42.8631 27.8973 42.8405 26.6393 42.8178 25.234C42.8178 23.8287 42.8178 22.3553 42.8178 20.814C42.8405 19.25 42.8631 17.7767 42.8858 16.394C42.9085 14.9887 42.9425 13.7533 42.9878 12.688C43.0558 11.6 43.1238 10.818 43.1918 10.342C43.2598 9.934 43.4071 9.57133 43.6338 9.254C43.8605 8.93667 44.1211 8.676 44.4158 8.472C44.7105 8.24533 45.0051 8.08667 45.2998 7.996C45.6171 7.88267 45.8778 7.826 46.0818 7.826H51.9298ZM90.9297 34.074C89.5017 34.074 88.1757 33.836 86.9517 33.36C85.7503 32.884 84.7077 32.2153 83.8237 31.354C82.9623 30.47 82.2823 29.4273 81.7837 28.226C81.3077 27.0247 81.0697 25.6987 81.0697 24.248C81.0697 22.752 81.319 21.392 81.8177 20.168C82.339 18.9213 83.0417 17.8673 83.9257 17.006C84.8097 16.1447 85.8523 15.476 87.0537 15C88.255 14.524 89.547 14.286 90.9297 14.286C92.335 14.286 93.627 14.524 94.8057 15C96.007 15.476 97.0497 16.1447 97.9337 17.006C98.8177 17.8673 99.509 18.9213 100.008 20.168C100.506 21.392 100.756 22.752 100.756 24.248C100.756 25.6987 100.518 27.0247 100.042 28.226C99.5883 29.4273 98.931 30.47 98.0697 31.354C97.2083 32.2153 96.177 32.884 94.9757 33.36C93.7743 33.836 92.4257 34.074 90.9297 34.074ZM90.9297 28.294C91.587 28.294 92.165 28.1807 92.6637 27.954C93.1623 27.7047 93.5703 27.3987 93.8877 27.036C94.2277 26.6507 94.477 26.22 94.6357 25.744C94.817 25.2453 94.9077 24.7467 94.9077 24.248C94.9077 23.024 94.5563 22.0267 93.8537 21.256C93.1737 20.4627 92.199 20.066 90.9297 20.066C89.6603 20.066 88.6743 20.4627 87.9717 21.256C87.269 22.0493 86.9177 23.0467 86.9177 24.248C86.9177 24.7467 86.997 25.2453 87.1557 25.744C87.337 26.22 87.5863 26.6507 87.9037 27.036C88.2437 27.3987 88.663 27.7047 89.1617 27.954C89.6603 28.1807 90.2497 28.294 90.9297 28.294ZM107.276 23.466C107.276 23.8967 107.276 24.4407 107.276 25.098C107.276 25.7553 107.276 26.4467 107.276 27.172C107.276 27.8973 107.276 28.6113 107.276 29.314C107.299 30.0167 107.322 30.64 107.344 31.184C107.344 31.524 107.276 31.8413 107.14 32.136C107.004 32.4533 106.812 32.7253 106.562 32.952C106.313 33.2013 106.007 33.394 105.644 33.53C105.304 33.666 104.919 33.734 104.488 33.734C103.468 33.734 102.72 33.4733 102.244 32.952C101.791 32.4533 101.542 31.8867 101.496 31.252C101.474 30.776 101.451 30.1527 101.428 29.382C101.428 28.6113 101.428 27.7953 101.428 26.934C101.428 26.0727 101.428 25.234 101.428 24.418C101.451 23.5793 101.462 22.888 101.462 22.344C101.462 21.188 101.61 20.134 101.904 19.182C102.222 18.2073 102.686 17.38 103.298 16.7C103.91 16.02 104.67 15.4987 105.576 15.136C106.506 14.7507 107.582 14.558 108.806 14.558H112.274C112.954 14.558 113.487 14.8527 113.872 15.442C114.28 16.0313 114.484 16.7227 114.484 17.516C114.484 18.2413 114.292 18.8873 113.906 19.454C113.544 20.0207 112.988 20.304 112.24 20.304H110.642C109.69 20.304 108.886 20.542 108.228 21.018C107.594 21.4713 107.276 22.2873 107.276 23.466ZM122.698 14.558C123.287 14.558 123.786 14.83 124.194 15.374C124.602 15.918 124.806 16.5867 124.806 17.38C124.806 18.196 124.591 18.876 124.16 19.42C123.752 19.964 123.265 20.236 122.698 20.236H122.018C121.225 20.236 120.533 20.5873 119.944 21.29C119.377 21.97 119.094 22.956 119.094 24.248C119.094 24.928 119.207 25.5287 119.434 26.05C119.661 26.5713 119.967 27.002 120.352 27.342C120.76 27.682 121.225 27.9427 121.746 28.124C122.267 28.3053 122.823 28.396 123.412 28.396H124.908C125.112 28.396 125.271 28.362 125.384 28.294C125.52 28.2033 125.622 28.1013 125.69 27.988C125.758 27.8747 125.792 27.7727 125.792 27.682C125.815 27.5687 125.826 27.478 125.826 27.41C125.894 25.982 125.939 24.4747 125.962 22.888C125.985 21.3013 125.985 19.7373 125.962 18.196C125.939 16.6547 125.917 15.1813 125.894 13.776C125.871 12.348 125.837 11.1013 125.792 10.036C125.769 9.46933 125.996 8.95933 126.472 8.506C126.948 8.05267 127.696 7.826 128.716 7.826C129.6 7.826 130.303 8.04133 130.824 8.472C131.345 8.88 131.617 9.39 131.64 10.002C131.663 10.5007 131.674 11.3053 131.674 12.416C131.697 13.504 131.708 14.7507 131.708 16.156C131.731 17.5387 131.742 19.012 131.742 20.576C131.742 22.14 131.731 23.6247 131.708 25.03C131.685 26.4353 131.651 27.6933 131.606 28.804C131.561 29.9147 131.504 30.7307 131.436 31.252C131.323 32.1133 131.017 32.7367 130.518 33.122C130.019 33.53 129.464 33.734 128.852 33.734H123.956C122.097 33.734 120.499 33.496 119.162 33.02C117.825 32.544 116.725 31.8867 115.864 31.048C115.003 30.1867 114.368 29.178 113.96 28.022C113.552 26.866 113.348 25.608 113.348 24.248C113.348 23.092 113.495 21.936 113.79 20.78C114.085 19.624 114.549 18.5927 115.184 17.686C115.841 16.7567 116.691 16.0087 117.734 15.442C118.799 14.8527 120.08 14.558 121.576 14.558H122.698ZM132.491 24.214C132.491 22.8087 132.695 21.5053 133.103 20.304C133.511 19.08 134.111 18.026 134.905 17.142C135.721 16.258 136.718 15.5667 137.897 15.068C139.075 14.5467 140.424 14.286 141.943 14.286C143.076 14.286 144.175 14.4787 145.241 14.864C146.306 15.2493 147.247 15.8273 148.063 16.598C148.901 17.346 149.581 18.298 150.103 19.454C150.624 20.5873 150.907 21.9133 150.953 23.432C150.975 24.4973 150.749 25.3247 150.273 25.914C149.797 26.4807 149.06 26.764 148.063 26.764H141.773C141.138 26.764 140.673 26.526 140.379 26.05C140.084 25.574 139.937 25.0187 139.937 24.384C139.937 23.7493 140.107 23.1827 140.447 22.684C140.787 22.1627 141.251 21.902 141.841 21.902H145.071C145.071 21.63 145.014 21.3353 144.901 21.018C144.81 20.7007 144.651 20.4173 144.425 20.168C144.221 19.896 143.926 19.6807 143.541 19.522C143.155 19.3407 142.668 19.25 142.079 19.25C140.923 19.25 140.016 19.6467 139.359 20.44C138.701 21.2107 138.373 22.4687 138.373 24.214C138.373 25.8913 138.713 27.1153 139.393 27.886C140.073 28.6567 141.036 29.076 142.283 29.144C142.895 29.1893 143.541 29.1553 144.221 29.042C144.923 28.906 145.603 28.6567 146.261 28.294C146.601 28.1353 146.952 28.0447 147.315 28.022C147.677 27.9993 148.017 28.0447 148.335 28.158C148.652 28.2713 148.924 28.464 149.151 28.736C149.4 29.008 149.581 29.348 149.695 29.756C149.808 30.1413 149.819 30.504 149.729 30.844C149.638 31.1613 149.502 31.4447 149.321 31.694C149.162 31.9433 148.981 32.1473 148.777 32.306C148.573 32.4873 148.403 32.612 148.267 32.68C147.428 33.1787 146.453 33.5527 145.343 33.802C144.232 34.0513 143.099 34.142 141.943 34.074C140.265 33.9833 138.826 33.6547 137.625 33.088C136.423 32.544 135.437 31.83 134.667 30.946C133.919 30.062 133.363 29.042 133.001 27.886C132.661 26.73 132.491 25.506 132.491 24.214ZM157.436 23.466C157.436 23.8967 157.436 24.4407 157.436 25.098C157.436 25.7553 157.436 26.4467 157.436 27.172C157.436 27.8973 157.436 28.6113 157.436 29.314C157.458 30.0167 157.481 30.64 157.504 31.184C157.504 31.524 157.436 31.8413 157.3 32.136C157.164 32.4533 156.971 32.7253 156.722 32.952C156.472 33.2013 156.166 33.394 155.804 33.53C155.464 33.666 155.078 33.734 154.648 33.734C153.628 33.734 152.88 33.4733 152.404 32.952C151.95 32.4533 151.701 31.8867 151.656 31.252C151.633 30.776 151.61 30.1527 151.588 29.382C151.588 28.6113 151.588 27.7953 151.588 26.934C151.588 26.0727 151.588 25.234 151.588 24.418C151.61 23.5793 151.622 22.888 151.622 22.344C151.622 21.188 151.769 20.134 152.064 19.182C152.381 18.2073 152.846 17.38 153.458 16.7C154.07 16.02 154.829 15.4987 155.736 15.136C156.665 14.7507 157.742 14.558 158.966 14.558H162.434C163.114 14.558 163.646 14.8527 164.032 15.442C164.44 16.0313 164.644 16.7227 164.644 17.516C164.644 18.2413 164.451 18.8873 164.066 19.454C163.703 20.0207 163.148 20.304 162.4 20.304H160.802C159.85 20.304 159.045 20.542 158.388 21.018C157.753 21.4713 157.436 22.2873 157.436 23.466Z" fill="#FC5621"/>
<path d="M68.0498 21H76.0498" stroke="#FC5621" stroke-width="5" stroke-linecap="round"/>
<path d="M20.1184 7C22.1235 7 23.8623 8.08576 24.7333 9.67596C25.6437 8.92951 26.8261 8.47869 28.1186 8.47863C30.9957 8.47863 33.329 10.7124 33.329 13.4678C33.3288 14.4346 33.0396 15.3362 32.5426 16.1005C35.0874 16.4291 37.0494 18.5161 37.0494 21.0433C37.0494 23.1426 35.6952 24.9374 33.7781 25.6739C33.9677 26.1911 34.0726 26.7465 34.0728 27.3256C34.0728 30.0809 31.7405 32.3147 28.8636 32.3148C27.4956 32.3148 26.251 31.8095 25.3214 30.9835C25.3249 31.0573 25.3277 31.1316 25.3277 31.2061C25.3277 33.9616 22.9956 36.1953 20.1184 36.1953C17.2413 36.1953 14.9092 33.9616 14.9092 31.2061C14.9092 31.1859 14.9099 31.1656 14.9103 31.1454C14.0044 31.8748 12.8363 32.3148 11.5601 32.3148C8.68296 32.3148 6.35084 30.0811 6.35084 27.3256C6.35088 26.7693 6.44613 26.2345 6.62162 25.7349C4.61871 25.0394 3.1875 23.2016 3.1875 21.0433C3.18756 18.4598 5.23806 16.3338 7.86558 16.0789C7.37725 15.3193 7.09482 14.4253 7.09471 13.4678C7.09471 10.7125 9.42701 8.47872 12.304 8.47863C13.5362 8.47863 14.6677 8.88907 15.5597 9.57395C16.4481 8.03922 18.1562 7.00004 20.1184 7ZM23.5028 15.7801C22.5923 16.5262 21.4109 16.9784 20.1184 16.9784C18.8859 16.9784 17.7538 16.5674 16.8618 15.8821C16.0543 17.2764 14.5716 18.2618 12.8352 18.4303C13.3241 19.1903 13.6071 20.0851 13.6071 21.0433C13.6071 21.5995 13.5096 22.1337 13.3342 22.6332C15.3378 23.3281 16.7692 25.1669 16.7694 27.3256C16.7694 27.3458 16.7675 27.3664 16.7674 27.3866C17.6733 26.6568 18.8421 26.2169 20.1184 26.2169C21.4861 26.2169 22.7301 26.7227 23.6595 27.5482C23.6561 27.4746 23.6532 27.4001 23.6532 27.3256C23.6534 25.2271 25.0071 23.4319 26.9233 22.695C26.7341 22.1781 26.6308 21.6222 26.6308 21.0433C26.6308 20.0764 26.918 19.1742 27.4152 18.4097C25.7115 18.1893 24.2699 17.1814 23.5028 15.7801Z" fill="#FC5621"/>
<path d="M26.5748 12.4043C28.2992 12.4044 29.6975 13.7759 29.6977 15.4677C29.6977 16.5541 29.3402 17.6561 28.629 18.3064C29.9719 19.9053 30.7684 21.765 30.7684 23.4883C30.7681 27.7182 25.9742 31.1473 20.0615 31.1473C14.1488 31.1473 9.35584 27.7182 9.35547 23.4883C9.35547 21.657 10.2536 19.6713 11.7521 18.0086C11.2258 17.3484 10.9614 16.4022 10.9614 15.4677C10.9616 13.7759 12.3599 12.4043 14.0843 12.4043C15.4566 12.4045 16.8464 13.3305 17.3576 14.561C18.2212 14.332 19.1275 14.2066 20.0615 14.2065C21.1703 14.2065 22.2397 14.3846 23.2455 14.7011C23.7058 13.4011 25.1508 12.4043 26.5748 12.4043Z" fill="white"/>
</svg>
